<svg width="30" height="21" viewBox="0 0 30 21" fill="none" xmlns="http://www.w3.org/2000/svg">
<path d="M27.7062 8.60461H1.54375C0.69116 8.60461 0 9.33656 0 10.2395V10.4116C0 11.3145 0.69116 12.0464 1.54375 12.0464H27.7062C28.5588 12.0464 29.25 11.3145 29.25 10.4116V10.2395C29.25 9.33656 28.5588 8.60461 27.7062 8.60461Z" fill="#33367F"/>
<path d="M27.7062 17.2091H1.54375C0.69116 17.2091 0 17.9411 0 18.844V19.0161C0 19.919 0.69116 20.6509 1.54375 20.6509H27.7062C28.5588 20.6509 29.25 19.919 29.25 19.0161V18.844C29.25 17.9411 28.5588 17.2091 27.7062 17.2091Z" fill="#33367F"/>
<path d="M27.7062 0H1.54375C0.69116 0 0 0.73195 0 1.63486V1.80695C0 2.70985 0.69116 3.4418 1.54375 3.4418H27.7062C28.5588 3.4418 29.25 2.70985 29.25 1.80695V1.63486C29.25 0.73195 28.5588 0 27.7062 0Z" fill="#33367F"/>
</svg>
