<svg width="43" height="27" viewBox="0 0 43 27" fill="none" xmlns="http://www.w3.org/2000/svg">
<path d="M40.8264 0.382019H1.94843C1.12134 0.382019 0.453125 0.910573 0.453125 1.5648V25.2203C0.453125 25.8746 1.12134 26.4031 1.94843 26.4031H40.8264C41.6535 26.4031 42.3218 25.8746 42.3218 25.2203V1.5648C42.3218 0.910573 41.6535 0.382019 40.8264 0.382019ZM38.9573 4.47739V23.7419H3.81757V4.47739L2.52787 3.68271L4.36429 1.81614L6.36426 3.04696H36.4153L38.4153 1.81614L40.2517 3.68271L38.9573 4.47739ZM36.4153 3.04327L21.3874 12.2837L6.35959 3.04327L4.35962 1.81244L2.52319 3.67901L3.8129 4.47369L19.7753 14.2907C20.2344 14.5728 20.7991 14.726 21.3804 14.726C21.9617 14.726 22.5265 14.5728 22.9855 14.2907L38.9573 4.47739L40.247 3.68271L38.4106 1.81614L36.4153 3.04327Z" fill="white"/>
</svg>
