<svg width="43" height="40" viewBox="0 0 43 40" fill="none" xmlns="http://www.w3.org/2000/svg">
<path d="M18.3186 9.04792L11.5166 1.54984C10.7325 0.685782 9.29487 0.689622 8.38405 1.56136L2.79045 6.91274C1.12564 8.50452 0.649118 10.8682 1.61221 12.7634C7.3659 24.14 16.9736 33.3281 28.8785 38.8386C30.861 39.7584 33.3341 39.3033 34.9989 37.7115L40.6448 32.3102C41.5596 31.4366 41.5616 30.056 40.6488 29.3071L32.7671 22.8459C31.9427 22.17 30.6619 22.2584 29.8356 23.0495L27.0931 25.6723C26.9527 25.8129 26.7678 25.9055 26.567 25.936C26.3661 25.9666 26.1603 25.9333 25.9812 25.8413C21.4983 23.3761 17.7798 19.8203 15.2041 15.536C15.1077 15.3646 15.0728 15.1678 15.1047 14.9756C15.1367 14.7835 15.2338 14.6067 15.3811 14.4723L18.1156 11.859C18.9439 11.064 19.0344 9.83517 18.3186 9.046V9.04792Z" stroke="white" stroke-width="1.34479" stroke-linecap="round" stroke-linejoin="round"/>
</svg>
