<svg width="26" height="26" viewBox="0 0 26 26" fill="none" xmlns="http://www.w3.org/2000/svg">
<path d="M-8.96454e-05 12.8589C-8.96454e-05 11.1136 1.30514 10.1994 3.07104 10.1994H8.2152C7.8313 8.7034 7.67775 7.29053 7.67775 6.04388C7.67775 1.22351 8.9062 0.226189 9.9811 0.226189C10.6721 0.226189 11.2096 0.309299 11.9006 0.724849C12.1309 0.891068 12.2077 1.05729 12.2844 1.30662L13.0522 5.79455C13.8968 8.12163 15.9698 10.1994 17.6589 11.6123V23.497C17.0447 23.497 16.4305 23.8294 15.6627 24.245C14.8181 24.6605 13.9736 25.1592 13.0522 25.1592H5.75829C4.22272 25.1592 3.07104 23.8294 3.07104 22.6659C3.07104 22.4165 3.07104 22.2503 3.14782 22.0841C2.22648 21.6686 1.53548 20.8375 1.53548 19.757C1.53548 19.2584 1.61226 18.8428 1.76581 18.4273C1.15158 18.0117 0.614138 17.2637 0.614138 16.4326C0.614138 15.934 0.844473 15.4353 1.07481 15.0198C0.460583 14.5211 -8.96454e-05 13.69 -8.96454e-05 12.8589ZM1.61226 12.8589C1.61226 13.9393 2.61037 14.0224 2.76393 14.5211C2.91749 15.1029 2.1497 15.2691 2.1497 16.2664C2.1497 17.2637 3.30138 17.2637 3.45494 17.8455C3.60849 18.5104 3.07104 18.6766 3.07104 19.6739V19.8401C3.2246 20.6712 4.37628 20.7543 4.60661 21.0868C4.83695 21.5023 4.60661 21.6686 4.60661 22.5828C4.60661 23.0814 5.14406 23.4139 5.75829 23.4139H13.0522C13.6665 23.4139 14.2807 23.0814 15.0485 22.6659C15.6627 22.3334 16.2769 22.001 16.8912 21.8348V13.1082C14.9717 11.5291 12.5148 9.20206 11.5934 6.29321V6.12699L10.9024 1.9715C10.5953 1.88839 10.365 1.88839 9.9811 1.88839C9.82754 1.88839 9.21332 2.88571 9.21332 6.04388C9.21332 7.29053 9.44365 8.62029 9.82754 10.1994H9.9811C10.4418 10.1994 10.7489 10.5318 10.7489 11.0305C10.7489 11.5291 10.4418 11.8616 9.9811 11.8616H3.07104C2.30326 11.8616 1.61226 12.2771 1.61226 12.8589Z" fill="#575050"/>
<path d="M19.3702 24.8206H23.9769C24.8214 24.8206 25.5125 24.0726 25.5125 23.1584V11.523C25.5125 10.6088 24.8214 9.8608 23.9769 9.8608H19.3702C18.5256 9.8608 17.8346 10.6088 17.8346 11.523V23.1584C17.8346 24.0726 18.5256 24.8206 19.3702 24.8206ZM23.9769 11.523V23.1584H19.3702V11.523H23.9769Z" fill="#575050"/>
</svg>
