<svg width="32" height="31" viewBox="0 0 32 31" fill="none" xmlns="http://www.w3.org/2000/svg">
<path d="M19.7558 11.3082H23.0349V14.1044H19.7558V11.3082ZM23.0349 5.71568H19.7558V8.51193H23.0349V5.71568ZM13.1975 19.6969H16.4766V16.9007H13.1975V19.6969ZM16.4766 5.71568H13.1975V8.51193H16.4766V5.71568ZM13.1975 14.1044H16.4766V11.3082H13.1975V14.1044ZM9.91841 5.71568H6.63929V8.51193H9.91841V5.71568ZM9.91841 11.3082H6.63929V14.1044H9.91841V11.3082ZM19.018 28.0857H16.4766V23.1923H13.1975V28.0857H3.36017V2.91942H26.314V14.1464C27.4781 14.2303 28.593 14.5379 29.5931 14.9853V0.123169H0.0810547V30.882H21.2478C20.5755 30.099 19.7558 29.1483 19.018 28.0857ZM6.63929 25.2894H9.91841V22.4932H6.63929V25.2894ZM9.91841 16.9007H6.63929V19.6969H9.91841V16.9007ZM31.2327 21.7941C31.2327 25.4293 25.4942 30.882 25.4942 30.882C25.4942 30.882 19.7558 25.4293 19.7558 21.7941C19.7558 19.1377 22.3791 16.9007 25.4942 16.9007C28.6094 16.9007 31.2327 19.1377 31.2327 21.7941ZM27.4617 21.9339C27.4617 21.0951 26.478 20.2562 25.4942 20.2562C24.5105 20.2562 23.5268 20.9553 23.5268 21.9339C23.5268 22.7728 24.3465 23.6117 25.4942 23.6117C26.6419 23.6117 27.6257 22.7728 27.4617 21.9339Z" fill="white"/>
</svg>
